<svg xmlns="http://www.w3.org/2000/svg" xmlns:xlink="http://www.w3.org/1999/xlink" width="1000" zoomAndPan="magnify" viewBox="0 0 750 187.499995" height="250" preserveAspectRatio="xMidYMid meet" version="1.0"><defs><g/></defs><g fill="#000000" fill-opacity="1"><g transform="translate(183.083839, 111.429998)"><g><path d="M 53.375 -53.625 C 58.4375 -53.625 62.765625 -52.398438 66.359375 -49.953125 C 69.960938 -47.503906 72.726562 -44.179688 74.65625 -39.984375 C 76.582031 -35.785156 77.546875 -31.066406 77.546875 -25.828125 C 77.546875 -20.359375 76.535156 -15.519531 74.515625 -11.3125 C 72.503906 -7.113281 69.65625 -3.847656 65.96875 -1.515625 C 62.289062 0.816406 57.945312 1.984375 52.9375 1.984375 C 47.875 1.984375 43.5 0.890625 39.8125 -1.296875 C 36.125 -3.484375 33.300781 -7.082031 31.34375 -12.09375 L 31.34375 0 L 3.71875 0 L 3.71875 -62.171875 L 31.34375 -62.171875 L 31.34375 -37.828125 C 34.28125 -48.359375 41.625 -53.625 53.375 -53.625 Z M 39.8125 -17.1875 C 42.519531 -17.1875 44.675781 -17.976562 46.28125 -19.5625 C 47.894531 -21.144531 48.703125 -23.234375 48.703125 -25.828125 C 48.703125 -28.410156 47.910156 -30.492188 46.328125 -32.078125 C 44.742188 -33.660156 42.597656 -34.453125 39.890625 -34.453125 C 37.242188 -34.453125 35.144531 -33.644531 33.59375 -32.03125 C 32.039062 -30.425781 31.265625 -28.328125 31.265625 -25.734375 C 31.265625 -23.203125 32.023438 -21.144531 33.546875 -19.5625 C 35.078125 -17.976562 37.164062 -17.1875 39.8125 -17.1875 Z M 39.8125 -17.1875 "/></g></g></g><g fill="#000000" fill-opacity="1"><g transform="translate(262.35415, 111.429998)"><g><path d="M 66.75 -26.6875 L 66.75 -22.109375 L 28.40625 -22.109375 C 29.738281 -20.265625 31.867188 -18.796875 34.796875 -17.703125 C 37.734375 -16.609375 41.648438 -16.0625 46.546875 -16.0625 C 50.460938 -16.0625 53.929688 -16.476562 56.953125 -17.3125 C 59.972656 -18.144531 62.664062 -19.195312 65.03125 -20.46875 L 65.03125 -4.0625 C 62.144531 -2.382812 58.367188 -0.957031 53.703125 0.21875 C 49.046875 1.394531 43.984375 1.984375 38.515625 1.984375 C 30.679688 1.984375 24 0.773438 18.46875 -1.640625 C 12.945312 -4.054688 8.742188 -7.410156 5.859375 -11.703125 C 2.984375 -15.992188 1.546875 -20.898438 1.546875 -26.421875 C 1.546875 -31.773438 2.867188 -36.492188 5.515625 -40.578125 C 8.171875 -44.671875 12.015625 -47.867188 17.046875 -50.171875 C 22.085938 -52.472656 28.117188 -53.625 35.140625 -53.625 C 42.515625 -53.625 48.519531 -52.488281 53.15625 -50.21875 C 57.789062 -47.945312 61.210938 -44.78125 63.421875 -40.71875 C 65.640625 -36.65625 66.75 -31.976562 66.75 -26.6875 Z M 36.609375 -37.3125 C 33.960938 -37.3125 31.863281 -36.75 30.3125 -35.625 C 28.757812 -34.5 27.78125 -32.988281 27.375 -31.09375 L 45.6875 -31.09375 C 45.34375 -32.988281 44.421875 -34.5 42.921875 -35.625 C 41.421875 -36.75 39.316406 -37.3125 36.609375 -37.3125 Z M 36.609375 -37.3125 "/></g></g></g><g fill="#000000" fill-opacity="1"><g transform="translate(331.003276, 111.429998)"><g><path d="M 31.4375 -53.625 C 42.601562 -53.625 51.050781 -51.046875 56.78125 -45.890625 C 62.507812 -40.742188 65.375 -33.332031 65.375 -23.65625 L 65.375 0 L 38.78125 0 L 38.78125 -7.34375 C 36.988281 -4.632812 34.507812 -2.441406 31.34375 -0.765625 C 28.175781 0.898438 24.378906 1.734375 19.953125 1.734375 C 16.148438 1.734375 12.863281 1.039062 10.09375 -0.34375 C 7.332031 -1.726562 5.21875 -3.613281 3.75 -6 C 2.28125 -8.382812 1.546875 -11.101562 1.546875 -14.15625 C 1.546875 -17.382812 2.378906 -20.207031 4.046875 -22.625 C 5.722656 -25.039062 8.054688 -26.925781 11.046875 -28.28125 C 14.046875 -29.632812 17.503906 -30.3125 21.421875 -30.3125 C 25.335938 -30.3125 28.660156 -29.707031 31.390625 -28.5 C 34.128906 -27.289062 36.503906 -25.535156 38.515625 -23.234375 C 37.941406 -26.972656 36.1875 -29.773438 33.25 -31.640625 C 30.3125 -33.515625 26.539062 -34.453125 21.9375 -34.453125 C 18.65625 -34.453125 15.382812 -33.921875 12.125 -32.859375 C 8.875 -31.796875 6.097656 -30.34375 3.796875 -28.5 L 3.796875 -46.546875 C 6.960938 -48.554688 10.832031 -50.238281 15.40625 -51.59375 C 19.988281 -52.945312 25.332031 -53.625 31.4375 -53.625 Z M 32.046875 -10.796875 C 34.054688 -10.796875 35.679688 -11.253906 36.921875 -12.171875 C 38.160156 -13.097656 38.78125 -14.25 38.78125 -15.625 C 38.78125 -17.070312 38.160156 -18.222656 36.921875 -19.078125 C 35.679688 -19.941406 34.082031 -20.375 32.125 -20.375 C 30.226562 -20.375 28.71875 -19.925781 27.59375 -19.03125 C 26.46875 -18.144531 25.90625 -17.007812 25.90625 -15.625 C 25.90625 -14.1875 26.46875 -13.019531 27.59375 -12.125 C 28.71875 -11.238281 30.203125 -10.796875 32.046875 -10.796875 Z M 32.046875 -10.796875 "/></g></g></g><g fill="#000000" fill-opacity="1"><g transform="translate(399.220645, 111.429998)"><g><path d="M 16.921875 1.984375 C 13.984375 1.984375 11.363281 1.4375 9.0625 0.34375 C 6.757812 -0.75 4.945312 -2.226562 3.625 -4.09375 C 2.300781 -5.96875 1.640625 -8.03125 1.640625 -10.28125 C 1.640625 -12.519531 2.300781 -14.546875 3.625 -16.359375 C 4.945312 -18.171875 6.757812 -19.609375 9.0625 -20.671875 C 11.363281 -21.742188 13.984375 -22.28125 16.921875 -22.28125 C 19.859375 -22.28125 22.476562 -21.742188 24.78125 -20.671875 C 27.082031 -19.609375 28.894531 -18.171875 30.21875 -16.359375 C 31.550781 -14.546875 32.21875 -12.519531 32.21875 -10.28125 C 32.21875 -8.03125 31.550781 -5.96875 30.21875 -4.09375 C 28.894531 -2.226562 27.082031 -0.75 24.78125 0.34375 C 22.476562 1.4375 19.859375 1.984375 16.921875 1.984375 Z M 16.921875 1.984375 "/></g></g></g><g fill="#000000" fill-opacity="1"><g transform="translate(432.983932, 111.429998)"><g><path d="M 57.34375 -51.21875 L 57.34375 -32.8125 L 42.484375 -32.8125 L 42.484375 0 L 14.859375 0 L 14.859375 -32.8125 L 0.859375 -32.8125 L 0.859375 -51.21875 L 14.859375 -51.21875 L 14.859375 -59.5 L 42.484375 -62.78125 L 42.484375 -51.21875 Z M 57.34375 -51.21875 "/></g></g></g><g fill="#000000" fill-opacity="1"><g transform="translate(491.18458, 111.429998)"><g><path d="M 37.90625 1.984375 C 30.019531 1.984375 23.367188 0.71875 17.953125 -1.8125 C 12.546875 -4.34375 8.457031 -7.765625 5.6875 -12.078125 C 2.925781 -16.398438 1.546875 -21.179688 1.546875 -26.421875 C 1.546875 -31.722656 2.925781 -36.414062 5.6875 -40.5 C 8.457031 -44.59375 12.546875 -47.800781 17.953125 -50.125 C 23.367188 -52.457031 30.019531 -53.625 37.90625 -53.625 C 45.800781 -53.625 52.4375 -52.457031 57.8125 -50.125 C 63.195312 -47.800781 67.285156 -44.59375 70.078125 -40.5 C 72.867188 -36.414062 74.265625 -31.722656 74.265625 -26.421875 C 74.265625 -21.128906 72.882812 -16.335938 70.125 -12.046875 C 67.363281 -7.753906 63.273438 -4.34375 57.859375 -1.8125 C 52.453125 0.71875 45.800781 1.984375 37.90625 1.984375 Z M 37.90625 -16.75 C 40.726562 -16.75 42.898438 -17.554688 44.421875 -19.171875 C 45.953125 -20.785156 46.71875 -23.003906 46.71875 -25.828125 C 46.71875 -28.640625 45.953125 -30.820312 44.421875 -32.375 C 42.898438 -33.9375 40.726562 -34.71875 37.90625 -34.71875 C 35.09375 -34.71875 32.921875 -33.9375 31.390625 -32.375 C 29.867188 -30.820312 29.109375 -28.640625 29.109375 -25.828125 C 29.109375 -23.003906 29.867188 -20.785156 31.390625 -19.171875 C 32.921875 -17.554688 35.09375 -16.75 37.90625 -16.75 Z M 37.90625 -16.75 "/></g></g></g><g fill="#000000" fill-opacity="1"><g transform="translate(275.364005, 150.100405)"><g><path d="M 8.65625 -2.84375 C 8.65625 -1.894531 8.304688 -1.148438 7.609375 -0.609375 C 6.921875 -0.0664062 5.972656 0.203125 4.765625 0.203125 C 4.066406 0.203125 3.378906 0.109375 2.703125 -0.078125 C 2.023438 -0.273438 1.457031 -0.5 1 -0.75 L 1.234375 -2.171875 C 1.722656 -1.859375 2.28125 -1.59375 2.90625 -1.375 C 3.539062 -1.15625 4.203125 -1.046875 4.890625 -1.046875 C 5.628906 -1.046875 6.207031 -1.191406 6.625 -1.484375 C 7.050781 -1.773438 7.265625 -2.1875 7.265625 -2.71875 C 7.265625 -3.238281 7.078125 -3.640625 6.703125 -3.921875 C 6.328125 -4.210938 5.613281 -4.5 4.5625 -4.78125 C 3.394531 -5.082031 2.546875 -5.457031 2.015625 -5.90625 C 1.492188 -6.351562 1.234375 -7.003906 1.234375 -7.859375 C 1.234375 -8.691406 1.554688 -9.375 2.203125 -9.90625 C 2.859375 -10.4375 3.726562 -10.703125 4.8125 -10.703125 C 5.425781 -10.703125 6.003906 -10.632812 6.546875 -10.5 C 7.097656 -10.363281 7.601562 -10.195312 8.0625 -10 L 7.828125 -8.59375 C 7.347656 -8.84375 6.84375 -9.039062 6.3125 -9.1875 C 5.789062 -9.34375 5.273438 -9.421875 4.765625 -9.421875 C 4.035156 -9.421875 3.5 -9.28125 3.15625 -9 C 2.8125 -8.71875 2.640625 -8.363281 2.640625 -7.9375 C 2.640625 -7.507812 2.804688 -7.164062 3.140625 -6.90625 C 3.484375 -6.644531 4.097656 -6.394531 4.984375 -6.15625 C 6.222656 -5.832031 7.144531 -5.429688 7.75 -4.953125 C 8.351562 -4.472656 8.65625 -3.769531 8.65625 -2.84375 Z M 8.65625 -2.84375 "/></g></g></g><g fill="#000000" fill-opacity="1"><g transform="translate(285.062633, 150.100405)"><g><path d="M 3.640625 -14.046875 C 3.640625 -13.765625 3.535156 -13.515625 3.328125 -13.296875 C 3.128906 -13.085938 2.882812 -12.984375 2.59375 -12.984375 C 2.3125 -12.984375 2.0625 -13.085938 1.84375 -13.296875 C 1.632812 -13.515625 1.53125 -13.765625 1.53125 -14.046875 C 1.53125 -14.335938 1.632812 -14.585938 1.84375 -14.796875 C 2.0625 -15.003906 2.3125 -15.109375 2.59375 -15.109375 C 2.882812 -15.109375 3.128906 -15.003906 3.328125 -14.796875 C 3.535156 -14.585938 3.640625 -14.335938 3.640625 -14.046875 Z M 3.296875 0 L 1.859375 0 L 1.859375 -10.484375 L 3.296875 -10.484375 Z M 3.296875 0 "/></g></g></g><g fill="#000000" fill-opacity="1"><g transform="translate(290.244091, 150.100405)"><g><path d="M 8.65625 -2.84375 C 8.65625 -1.894531 8.304688 -1.148438 7.609375 -0.609375 C 6.921875 -0.0664062 5.972656 0.203125 4.765625 0.203125 C 4.066406 0.203125 3.378906 0.109375 2.703125 -0.078125 C 2.023438 -0.273438 1.457031 -0.5 1 -0.75 L 1.234375 -2.171875 C 1.722656 -1.859375 2.28125 -1.59375 2.90625 -1.375 C 3.539062 -1.15625 4.203125 -1.046875 4.890625 -1.046875 C 5.628906 -1.046875 6.207031 -1.191406 6.625 -1.484375 C 7.050781 -1.773438 7.265625 -2.1875 7.265625 -2.71875 C 7.265625 -3.238281 7.078125 -3.640625 6.703125 -3.921875 C 6.328125 -4.210938 5.613281 -4.5 4.5625 -4.78125 C 3.394531 -5.082031 2.546875 -5.457031 2.015625 -5.90625 C 1.492188 -6.351562 1.234375 -7.003906 1.234375 -7.859375 C 1.234375 -8.691406 1.554688 -9.375 2.203125 -9.90625 C 2.859375 -10.4375 3.726562 -10.703125 4.8125 -10.703125 C 5.425781 -10.703125 6.003906 -10.632812 6.546875 -10.5 C 7.097656 -10.363281 7.601562 -10.195312 8.0625 -10 L 7.828125 -8.59375 C 7.347656 -8.84375 6.84375 -9.039062 6.3125 -9.1875 C 5.789062 -9.34375 5.273438 -9.421875 4.765625 -9.421875 C 4.035156 -9.421875 3.5 -9.28125 3.15625 -9 C 2.8125 -8.71875 2.640625 -8.363281 2.640625 -7.9375 C 2.640625 -7.507812 2.804688 -7.164062 3.140625 -6.90625 C 3.484375 -6.644531 4.097656 -6.394531 4.984375 -6.15625 C 6.222656 -5.832031 7.144531 -5.429688 7.75 -4.953125 C 8.351562 -4.472656 8.65625 -3.769531 8.65625 -2.84375 Z M 8.65625 -2.84375 "/></g></g></g><g fill="#000000" fill-opacity="1"><g transform="translate(299.942719, 150.100405)"><g><path d="M 6.40625 0 C 6.257812 0.0390625 6.054688 0.078125 5.796875 0.109375 C 5.535156 0.148438 5.25 0.171875 4.9375 0.171875 C 4.125 0.171875 3.46875 -0.015625 2.96875 -0.390625 C 2.46875 -0.765625 2.21875 -1.429688 2.21875 -2.390625 L 2.21875 -9.234375 L 0.59375 -9.234375 L 0.59375 -10.484375 L 2.21875 -10.484375 L 2.21875 -14.109375 L 3.65625 -14.359375 L 3.65625 -10.484375 L 6.078125 -10.484375 L 6.265625 -9.234375 L 3.65625 -9.234375 L 3.65625 -2.640625 C 3.65625 -2.109375 3.769531 -1.71875 4 -1.46875 C 4.238281 -1.226562 4.640625 -1.109375 5.203125 -1.109375 C 5.367188 -1.109375 5.539062 -1.125 5.71875 -1.15625 C 5.90625 -1.1875 6.0625 -1.207031 6.1875 -1.21875 Z M 6.40625 0 "/></g></g></g><g fill="#000000" fill-opacity="1"><g transform="translate(307.249912, 150.100405)"><g><path d="M 9.796875 -1.265625 C 9.273438 -0.816406 8.675781 -0.457031 8 -0.1875 C 7.332031 0.0820312 6.59375 0.21875 5.78125 0.21875 C 4.863281 0.21875 4.050781 0.015625 3.34375 -0.390625 C 2.632812 -0.804688 2.078125 -1.421875 1.671875 -2.234375 C 1.265625 -3.046875 1.0625 -4.050781 1.0625 -5.25 C 1.0625 -6.375 1.253906 -7.34375 1.640625 -8.15625 C 2.035156 -8.96875 2.570312 -9.59375 3.25 -10.03125 C 3.9375 -10.476562 4.707031 -10.703125 5.5625 -10.703125 C 6.507812 -10.703125 7.296875 -10.460938 7.921875 -9.984375 C 8.546875 -9.515625 9.015625 -8.882812 9.328125 -8.09375 C 9.648438 -7.300781 9.8125 -6.421875 9.8125 -5.453125 L 9.8125 -5.140625 L 2.53125 -5.140625 C 2.550781 -3.835938 2.847656 -2.828125 3.421875 -2.109375 C 4.003906 -1.398438 4.820312 -1.046875 5.875 -1.046875 C 6.5625 -1.046875 7.210938 -1.1875 7.828125 -1.46875 C 8.441406 -1.757812 9.023438 -2.132812 9.578125 -2.59375 Z M 5.53125 -9.53125 C 4.769531 -9.53125 4.125 -9.25 3.59375 -8.6875 C 3.0625 -8.132812 2.71875 -7.335938 2.5625 -6.296875 L 8.3125 -6.296875 C 8.25 -7.234375 7.984375 -8.003906 7.515625 -8.609375 C 7.054688 -9.222656 6.394531 -9.53125 5.53125 -9.53125 Z M 5.53125 -9.53125 "/></g></g></g><g fill="#000000" fill-opacity="1"><g transform="translate(318.122117, 150.100405)"><g><path d="M 16.53125 0 L 15.0625 0 L 15.0625 -7.21875 C 15.0625 -7.894531 14.914062 -8.425781 14.625 -8.8125 C 14.332031 -9.195312 13.84375 -9.390625 13.15625 -9.390625 C 12.613281 -9.390625 12.066406 -9.226562 11.515625 -8.90625 C 10.972656 -8.59375 10.414062 -8.15625 9.84375 -7.59375 L 9.84375 0 L 8.390625 0 L 8.390625 -7.21875 C 8.390625 -7.894531 8.242188 -8.425781 7.953125 -8.8125 C 7.660156 -9.195312 7.171875 -9.390625 6.484375 -9.390625 C 5.941406 -9.390625 5.394531 -9.234375 4.84375 -8.921875 C 4.289062 -8.617188 3.734375 -8.1875 3.171875 -7.625 L 3.171875 0 L 1.703125 0 L 1.703125 -10.484375 L 2.84375 -10.484375 L 3.078125 -8.96875 C 3.640625 -9.476562 4.222656 -9.894531 4.828125 -10.21875 C 5.429688 -10.539062 6.082031 -10.703125 6.78125 -10.703125 C 7.59375 -10.703125 8.226562 -10.539062 8.6875 -10.21875 C 9.144531 -9.90625 9.46875 -9.460938 9.65625 -8.890625 C 10.238281 -9.398438 10.835938 -9.828125 11.453125 -10.171875 C 12.078125 -10.523438 12.75 -10.703125 13.46875 -10.703125 C 14.519531 -10.703125 15.289062 -10.421875 15.78125 -9.859375 C 16.28125 -9.296875 16.53125 -8.515625 16.53125 -7.515625 Z M 16.53125 0 "/></g></g></g><g fill="#000000" fill-opacity="1"><g transform="translate(336.257234, 150.100405)"><g><path d="M 9.21875 0 L 8.109375 0 L 7.859375 -1.390625 C 7.378906 -0.929688 6.832031 -0.546875 6.21875 -0.234375 C 5.601562 0.0664062 4.921875 0.21875 4.171875 0.21875 C 3.265625 0.21875 2.515625 -0.0195312 1.921875 -0.5 C 1.335938 -0.988281 1.046875 -1.703125 1.046875 -2.640625 C 1.046875 -3.859375 1.578125 -4.78125 2.640625 -5.40625 C 3.703125 -6.039062 5.414062 -6.476562 7.78125 -6.71875 L 7.78125 -7.40625 C 7.78125 -8.113281 7.582031 -8.625 7.1875 -8.9375 C 6.800781 -9.257812 6.273438 -9.421875 5.609375 -9.421875 C 4.984375 -9.421875 4.367188 -9.332031 3.765625 -9.15625 C 3.160156 -8.988281 2.570312 -8.765625 2 -8.484375 L 1.796875 -9.796875 C 2.398438 -10.054688 3.015625 -10.269531 3.640625 -10.4375 C 4.273438 -10.613281 4.957031 -10.703125 5.6875 -10.703125 C 8.039062 -10.703125 9.21875 -9.625 9.21875 -7.46875 Z M 7.78125 -2.59375 L 7.78125 -5.5625 C 6.40625 -5.425781 5.332031 -5.222656 4.5625 -4.953125 C 3.789062 -4.691406 3.253906 -4.375 2.953125 -4 C 2.648438 -3.625 2.5 -3.195312 2.5 -2.71875 C 2.5 -2.164062 2.675781 -1.742188 3.03125 -1.453125 C 3.382812 -1.160156 3.835938 -1.015625 4.390625 -1.015625 C 4.953125 -1.015625 5.53125 -1.160156 6.125 -1.453125 C 6.726562 -1.742188 7.28125 -2.125 7.78125 -2.59375 Z M 7.78125 -2.59375 "/></g></g></g><g fill="#000000" fill-opacity="1"><g transform="translate(347.085159, 150.100405)"><g/></g></g><g fill="#000000" fill-opacity="1"><g transform="translate(352.089478, 150.100405)"><g><path d="M 9.21875 0 L 8.109375 0 L 7.859375 -1.390625 C 7.378906 -0.929688 6.832031 -0.546875 6.21875 -0.234375 C 5.601562 0.0664062 4.921875 0.21875 4.171875 0.21875 C 3.265625 0.21875 2.515625 -0.0195312 1.921875 -0.5 C 1.335938 -0.988281 1.046875 -1.703125 1.046875 -2.640625 C 1.046875 -3.859375 1.578125 -4.78125 2.640625 -5.40625 C 3.703125 -6.039062 5.414062 -6.476562 7.78125 -6.71875 L 7.78125 -7.40625 C 7.78125 -8.113281 7.582031 -8.625 7.1875 -8.9375 C 6.800781 -9.257812 6.273438 -9.421875 5.609375 -9.421875 C 4.984375 -9.421875 4.367188 -9.332031 3.765625 -9.15625 C 3.160156 -8.988281 2.570312 -8.765625 2 -8.484375 L 1.796875 -9.796875 C 2.398438 -10.054688 3.015625 -10.269531 3.640625 -10.4375 C 4.273438 -10.613281 4.957031 -10.703125 5.6875 -10.703125 C 8.039062 -10.703125 9.21875 -9.625 9.21875 -7.46875 Z M 7.78125 -2.59375 L 7.78125 -5.5625 C 6.40625 -5.425781 5.332031 -5.222656 4.5625 -4.953125 C 3.789062 -4.691406 3.253906 -4.375 2.953125 -4 C 2.648438 -3.625 2.5 -3.195312 2.5 -2.71875 C 2.5 -2.164062 2.675781 -1.742188 3.03125 -1.453125 C 3.382812 -1.160156 3.835938 -1.015625 4.390625 -1.015625 C 4.953125 -1.015625 5.53125 -1.160156 6.125 -1.453125 C 6.726562 -1.742188 7.28125 -2.125 7.78125 -2.59375 Z M 7.78125 -2.59375 "/></g></g></g><g fill="#000000" fill-opacity="1"><g transform="translate(362.917403, 150.100405)"><g><path d="M 9.96875 0 L 8.515625 0 L 8.515625 -7.21875 C 8.515625 -7.894531 8.351562 -8.425781 8.03125 -8.8125 C 7.71875 -9.195312 7.226562 -9.390625 6.5625 -9.390625 C 6.007812 -9.390625 5.445312 -9.226562 4.875 -8.90625 C 4.3125 -8.582031 3.742188 -8.140625 3.171875 -7.578125 L 3.171875 0 L 1.703125 0 L 1.703125 -10.484375 L 2.84375 -10.484375 L 3.078125 -8.921875 C 3.648438 -9.441406 4.242188 -9.867188 4.859375 -10.203125 C 5.472656 -10.535156 6.132812 -10.703125 6.84375 -10.703125 C 7.894531 -10.703125 8.675781 -10.414062 9.1875 -9.84375 C 9.707031 -9.28125 9.96875 -8.492188 9.96875 -7.484375 Z M 9.96875 0 "/></g></g></g><g fill="#000000" fill-opacity="1"><g transform="translate(374.498191, 150.100405)"><g><path d="M 6.40625 0 C 6.257812 0.0390625 6.054688 0.078125 5.796875 0.109375 C 5.535156 0.148438 5.25 0.171875 4.9375 0.171875 C 4.125 0.171875 3.46875 -0.015625 2.96875 -0.390625 C 2.46875 -0.765625 2.21875 -1.429688 2.21875 -2.390625 L 2.21875 -9.234375 L 0.59375 -9.234375 L 0.59375 -10.484375 L 2.21875 -10.484375 L 2.21875 -14.109375 L 3.65625 -14.359375 L 3.65625 -10.484375 L 6.078125 -10.484375 L 6.265625 -9.234375 L 3.65625 -9.234375 L 3.65625 -2.640625 C 3.65625 -2.109375 3.769531 -1.71875 4 -1.46875 C 4.238281 -1.226562 4.640625 -1.109375 5.203125 -1.109375 C 5.367188 -1.109375 5.539062 -1.125 5.71875 -1.15625 C 5.90625 -1.1875 6.0625 -1.207031 6.1875 -1.21875 Z M 6.40625 0 "/></g></g></g><g fill="#000000" fill-opacity="1"><g transform="translate(381.805384, 150.100405)"><g><path d="M 3.640625 -14.046875 C 3.640625 -13.765625 3.535156 -13.515625 3.328125 -13.296875 C 3.128906 -13.085938 2.882812 -12.984375 2.59375 -12.984375 C 2.3125 -12.984375 2.0625 -13.085938 1.84375 -13.296875 C 1.632812 -13.515625 1.53125 -13.765625 1.53125 -14.046875 C 1.53125 -14.335938 1.632812 -14.585938 1.84375 -14.796875 C 2.0625 -15.003906 2.3125 -15.109375 2.59375 -15.109375 C 2.882812 -15.109375 3.128906 -15.003906 3.328125 -14.796875 C 3.535156 -14.585938 3.640625 -14.335938 3.640625 -14.046875 Z M 3.296875 0 L 1.859375 0 L 1.859375 -10.484375 L 3.296875 -10.484375 Z M 3.296875 0 "/></g></g></g><g fill="#000000" fill-opacity="1"><g transform="translate(386.986842, 150.100405)"><g><path d="M 6.71875 -5.53125 L 1.34375 -5.53125 L 1.34375 -7 L 6.71875 -7 Z M 6.71875 -5.53125 "/></g></g></g><g fill="#000000" fill-opacity="1"><g transform="translate(395.046899, 150.100405)"><g><path d="M 16.53125 0 L 15.0625 0 L 15.0625 -7.21875 C 15.0625 -7.894531 14.914062 -8.425781 14.625 -8.8125 C 14.332031 -9.195312 13.84375 -9.390625 13.15625 -9.390625 C 12.613281 -9.390625 12.066406 -9.226562 11.515625 -8.90625 C 10.972656 -8.59375 10.414062 -8.15625 9.84375 -7.59375 L 9.84375 0 L 8.390625 0 L 8.390625 -7.21875 C 8.390625 -7.894531 8.242188 -8.425781 7.953125 -8.8125 C 7.660156 -9.195312 7.171875 -9.390625 6.484375 -9.390625 C 5.941406 -9.390625 5.394531 -9.234375 4.84375 -8.921875 C 4.289062 -8.617188 3.734375 -8.1875 3.171875 -7.625 L 3.171875 0 L 1.703125 0 L 1.703125 -10.484375 L 2.84375 -10.484375 L 3.078125 -8.96875 C 3.640625 -9.476562 4.222656 -9.894531 4.828125 -10.21875 C 5.429688 -10.539062 6.082031 -10.703125 6.78125 -10.703125 C 7.59375 -10.703125 8.226562 -10.539062 8.6875 -10.21875 C 9.144531 -9.90625 9.46875 -9.460938 9.65625 -8.890625 C 10.238281 -9.398438 10.835938 -9.828125 11.453125 -10.171875 C 12.078125 -10.523438 12.75 -10.703125 13.46875 -10.703125 C 14.519531 -10.703125 15.289062 -10.421875 15.78125 -9.859375 C 16.28125 -9.296875 16.53125 -8.515625 16.53125 -7.515625 Z M 16.53125 0 "/></g></g></g><g fill="#000000" fill-opacity="1"><g transform="translate(413.182016, 150.100405)"><g><path d="M 9.21875 0 L 8.109375 0 L 7.859375 -1.390625 C 7.378906 -0.929688 6.832031 -0.546875 6.21875 -0.234375 C 5.601562 0.0664062 4.921875 0.21875 4.171875 0.21875 C 3.265625 0.21875 2.515625 -0.0195312 1.921875 -0.5 C 1.335938 -0.988281 1.046875 -1.703125 1.046875 -2.640625 C 1.046875 -3.859375 1.578125 -4.78125 2.640625 -5.40625 C 3.703125 -6.039062 5.414062 -6.476562 7.78125 -6.71875 L 7.78125 -7.40625 C 7.78125 -8.113281 7.582031 -8.625 7.1875 -8.9375 C 6.800781 -9.257812 6.273438 -9.421875 5.609375 -9.421875 C 4.984375 -9.421875 4.367188 -9.332031 3.765625 -9.15625 C 3.160156 -8.988281 2.570312 -8.765625 2 -8.484375 L 1.796875 -9.796875 C 2.398438 -10.054688 3.015625 -10.269531 3.640625 -10.4375 C 4.273438 -10.613281 4.957031 -10.703125 5.6875 -10.703125 C 8.039062 -10.703125 9.21875 -9.625 9.21875 -7.46875 Z M 7.78125 -2.59375 L 7.78125 -5.5625 C 6.40625 -5.425781 5.332031 -5.222656 4.5625 -4.953125 C 3.789062 -4.691406 3.253906 -4.375 2.953125 -4 C 2.648438 -3.625 2.5 -3.195312 2.5 -2.71875 C 2.5 -2.164062 2.675781 -1.742188 3.03125 -1.453125 C 3.382812 -1.160156 3.835938 -1.015625 4.390625 -1.015625 C 4.953125 -1.015625 5.53125 -1.160156 6.125 -1.453125 C 6.726562 -1.742188 7.28125 -2.125 7.78125 -2.59375 Z M 7.78125 -2.59375 "/></g></g></g><g fill="#000000" fill-opacity="1"><g transform="translate(424.009941, 150.100405)"><g><path d="M 3.296875 0 L 1.859375 0 L 1.859375 -15.640625 L 3.296875 -15.90625 Z M 3.296875 0 "/></g></g></g><g fill="#000000" fill-opacity="1"><g transform="translate(429.191398, 150.100405)"><g><path d="M 15.421875 -10.484375 L 11.9375 0.09375 L 10.65625 0.09375 L 8.046875 -8.515625 L 5.453125 0.09375 L 4.1875 0.09375 L 0.703125 -10.390625 L 2.125 -10.65625 L 4.828125 -1.859375 L 7.4375 -10.53125 L 8.703125 -10.53125 L 11.34375 -1.859375 L 13.9375 -10.484375 Z M 15.421875 -10.484375 "/></g></g></g><g fill="#000000" fill-opacity="1"><g transform="translate(445.311498, 150.100405)"><g><path d="M 9.21875 0 L 8.109375 0 L 7.859375 -1.390625 C 7.378906 -0.929688 6.832031 -0.546875 6.21875 -0.234375 C 5.601562 0.0664062 4.921875 0.21875 4.171875 0.21875 C 3.265625 0.21875 2.515625 -0.0195312 1.921875 -0.5 C 1.335938 -0.988281 1.046875 -1.703125 1.046875 -2.640625 C 1.046875 -3.859375 1.578125 -4.78125 2.640625 -5.40625 C 3.703125 -6.039062 5.414062 -6.476562 7.78125 -6.71875 L 7.78125 -7.40625 C 7.78125 -8.113281 7.582031 -8.625 7.1875 -8.9375 C 6.800781 -9.257812 6.273438 -9.421875 5.609375 -9.421875 C 4.984375 -9.421875 4.367188 -9.332031 3.765625 -9.15625 C 3.160156 -8.988281 2.570312 -8.765625 2 -8.484375 L 1.796875 -9.796875 C 2.398438 -10.054688 3.015625 -10.269531 3.640625 -10.4375 C 4.273438 -10.613281 4.957031 -10.703125 5.6875 -10.703125 C 8.039062 -10.703125 9.21875 -9.625 9.21875 -7.46875 Z M 7.78125 -2.59375 L 7.78125 -5.5625 C 6.40625 -5.425781 5.332031 -5.222656 4.5625 -4.953125 C 3.789062 -4.691406 3.253906 -4.375 2.953125 -4 C 2.648438 -3.625 2.5 -3.195312 2.5 -2.71875 C 2.5 -2.164062 2.675781 -1.742188 3.03125 -1.453125 C 3.382812 -1.160156 3.835938 -1.015625 4.390625 -1.015625 C 4.953125 -1.015625 5.53125 -1.160156 6.125 -1.453125 C 6.726562 -1.742188 7.28125 -2.125 7.78125 -2.59375 Z M 7.78125 -2.59375 "/></g></g></g><g fill="#000000" fill-opacity="1"><g transform="translate(456.139422, 150.100405)"><g><path d="M 7.09375 -9.328125 C 6.238281 -9.265625 5.457031 -8.960938 4.75 -8.421875 C 4.050781 -7.890625 3.523438 -7.273438 3.171875 -6.578125 L 3.171875 0 L 1.703125 0 L 1.703125 -10.484375 L 2.796875 -10.484375 L 3.125 -8.328125 C 3.507812 -8.921875 4.007812 -9.457031 4.625 -9.9375 C 5.25 -10.425781 5.988281 -10.679688 6.84375 -10.703125 Z M 7.09375 -9.328125 "/></g></g></g><g fill="#000000" fill-opacity="1"><g transform="translate(463.756611, 150.100405)"><g><path d="M 9.796875 -1.265625 C 9.273438 -0.816406 8.675781 -0.457031 8 -0.1875 C 7.332031 0.0820312 6.59375 0.21875 5.78125 0.21875 C 4.863281 0.21875 4.050781 0.015625 3.34375 -0.390625 C 2.632812 -0.804688 2.078125 -1.421875 1.671875 -2.234375 C 1.265625 -3.046875 1.0625 -4.050781 1.0625 -5.25 C 1.0625 -6.375 1.253906 -7.34375 1.640625 -8.15625 C 2.035156 -8.96875 2.570312 -9.59375 3.25 -10.03125 C 3.9375 -10.476562 4.707031 -10.703125 5.5625 -10.703125 C 6.507812 -10.703125 7.296875 -10.460938 7.921875 -9.984375 C 8.546875 -9.515625 9.015625 -8.882812 9.328125 -8.09375 C 9.648438 -7.300781 9.8125 -6.421875 9.8125 -5.453125 L 9.8125 -5.140625 L 2.53125 -5.140625 C 2.550781 -3.835938 2.847656 -2.828125 3.421875 -2.109375 C 4.003906 -1.398438 4.820312 -1.046875 5.875 -1.046875 C 6.5625 -1.046875 7.210938 -1.1875 7.828125 -1.46875 C 8.441406 -1.757812 9.023438 -2.132812 9.578125 -2.59375 Z M 5.53125 -9.53125 C 4.769531 -9.53125 4.125 -9.25 3.59375 -8.6875 C 3.0625 -8.132812 2.71875 -7.335938 2.5625 -6.296875 L 8.3125 -6.296875 C 8.25 -7.234375 7.984375 -8.003906 7.515625 -8.609375 C 7.054688 -9.222656 6.394531 -9.53125 5.53125 -9.53125 Z M 5.53125 -9.53125 "/></g></g></g></svg>